<?xml version="1.0" encoding="utf-8"?>
<!-- Generator: Adobe Illustrator 27.2.0, SVG Export Plug-In . SVG Version: 6.00 Build 0)  -->
<svg version="1.1" id="Ebene_1" xmlns="http://www.w3.org/2000/svg" xmlns:xlink="http://www.w3.org/1999/xlink" x="0px" y="0px"
	 viewBox="0 0 4000 1621.5" style="enable-background:new 0 0 4000 1621.5;" xml:space="preserve">
<style type="text/css">
	.st0{fill:#383838;}
	.st1{fill:#D6D6D6;}
</style>
<g>
	<g>
		<path d="M2512.2,562.3v71.5l-181.3,130.6c-42.4,30.5-93.3,46.9-145.5,46.9h-355.8V686.8h131.3c33.4,0,66-10.5,93.2-30l131.2-94.5
			H2512.2z"/>
		<path d="M2512.2,202.4v124.5h-131.3c-33.4,0-66,10.5-93.2,30l-458.2,329.8h-436V562.3h131.3c33.4,0,66-10.5,93.2-30l393-282.9
			c42.4-30.5,93.3-46.9,145.5-46.9H2512.2z"/>
		<path d="M2076.2,0v124.5h-131.3c-33.4,0-66,10.5-93.2,30L1720.4,249h-326.9v-71.5l181.3-130.6C1617.3,16.4,1668.2,0,1720.4,0
			H2076.2z"/>
	</g>
</g>
<g>
	<g>
		<path d="M126,1445.8c0,51.8,42,75.6,201.5,75.6c132.3,0,172.1-14.7,172.1-53.2c0-40.6-28-47.6-186.8-55.3
			c-213.4-9.8-298.1-43.4-298.1-153.3c0-107.8,109.9-142.1,293.2-142.1c184.7,0,296.7,46.2,296.7,167.3h-126
			c0-53.9-53.9-67.2-184.7-67.2c-123.9,0-153.2,11.9-153.2,48.3c0,37.8,29.4,44.8,172.1,53.2c193.1,10.5,312.8,21,312.8,144.9
			c0,130.9-123.9,157.4-305.1,157.4C119.7,1621.5,0,1587.2,0,1445.8H126z"/>
		<path d="M961.5,1117.6c195.2,0,293.2,74.2,305.8,215.5h-128.1c-11.9-79.1-72.8-109.9-177.7-109.9c-128.1,0-181.9,45.5-181.9,145.5
			c0,100.8,54.6,147,181.9,147c104.3,0,165.9-31.5,177.7-111.3h128.1c-12.6,142.1-110.6,216.9-305.8,216.9
			c-215.5,0-307.9-89.6-307.9-252.6C653.6,1206.5,746,1117.6,961.5,1117.6z"/>
		<path d="M1442.2,1614.5h-126v-489.8h126V1614.5z"/>
		<path d="M2002.1,1514.4v100.1h-503.8v-489.8h126v389.8H2002.1z"/>
		<path d="M2177,1224.7v94.8h368.8v100.1H2177v94.8h391.9v100.1h-517.8v-489.8h517.8v100.1H2177z"/>
		<path d="M3256.1,1124.6v489.8h-171.4l-333.8-367.4v367.4h-126v-489.8h170.7l334.5,368.1v-368.1H3256.1z"/>
		<path d="M3906.9,1224.7h-237.9v389.8h-126v-389.8h-237.9v-100.1h601.8V1224.7z"/>
	</g>
</g>
<g>
	<g>
		<g>
			<g>
				<g>
					<g>
						<g>
							<g>
								<g>
									<g>
										<path d="M3987.4,1480.5c-8.4-15-19.9-26.6-34.6-34.6c-14.7-8-30-12.1-46-12.1c-16,0-31.3,4-46,12.1
											c-14.7,8-26.2,19.6-34.6,34.6c-8.4,15-12.6,30.7-12.6,47.2c0,21.8,7.3,42.2,22,61.3c3,3.9,6.5,7.4,10.4,10.4
											c18.9,14.7,39.2,22.1,60.8,22.1c21.6,0,41.9-7.4,60.8-22.1c3.8-3,7.4-6.6,10.4-10.4c14.6-19.1,21.9-39.5,21.9-61.3
											C4000,1511.2,3995.8,1495.5,3987.4,1480.5z M3963.8,1577.5c-2.1,2.7-4.7,5.3-7.4,7.5c-15.3,12.2-31.8,18.3-49.4,18.3
											c-17.4,0-33.9-6.1-49.3-18.2c-2.8-2.2-5.3-4.8-7.5-7.5c-12-15.5-18-32.1-18-49.8c0-13.2,3.4-25.9,10.2-38
											c6.8-12.1,16-21.3,27.8-27.8c11.8-6.4,24-9.7,36.8-9.7s25.1,3.2,36.9,9.7c11.8,6.5,21.1,15.7,27.8,27.8
											c6.8,12.1,10.2,24.7,10.2,38C3981.9,1545.4,3975.8,1562,3963.8,1577.5z"/>
										<path d="M3931.4,1543.5c-2.5-3.4-4.4-5.7-5.8-6.9c-1.4-1.2-3.4-2.3-6.1-3.4c7.4-1.1,13.1-3.9,17.1-8.5
											c4.1-4.6,6.1-10.1,6.1-16.6c0-4.7-1.1-9-3.2-12.8c-2.2-3.9-4.9-6.7-8.1-8.6c-3.2-1.9-7.7-3.1-13.5-3.6
											c-2-0.1-11.2-0.2-27.6-0.2h-17.5v89.6h17.5v-36.8h4.6c4.9,0,8.9,1.3,12.1,3.8c3.2,2.5,7.2,8.7,12.1,18.5l7.2,14.5h21.7
											l-10.2-18.1C3934.2,1548,3932,1544.4,3931.4,1543.5z M3916.3,1520.4c-2.4,0.8-8.7,1.2-18.8,1.2h-7.1v-24.5h7.1
											c10,0,16.2,0.4,18.8,1.3c2.6,0.8,4.5,2.2,5.9,4.2c1.4,1.9,2.1,4.2,2.1,6.7c0,2.6-0.7,4.9-2.1,6.9
											C3920.6,1518.1,3918.7,1519.6,3916.3,1520.4z"/>
									</g>
								</g>
							</g>
						</g>
					</g>
				</g>
			</g>
		</g>
	</g>
</g>
</svg>
