<?xml version="1.0" encoding="utf-8"?>
<!-- Generator: Adobe Illustrator 27.2.0, SVG Export Plug-In . SVG Version: 6.00 Build 0)  -->
<svg version="1.1" id="Ebene_1" xmlns="http://www.w3.org/2000/svg" xmlns:xlink="http://www.w3.org/1999/xlink" x="0px" y="0px"
	 viewBox="0 0 4000 2901" style="enable-background:new 0 0 4000 2901;" xml:space="preserve">
<style type="text/css">
	.st0{fill:#383838;}
	.st1{fill:#D6D6D6;}
</style>
<g>
	<g>
		<path class="st0" d="M4000,2010.5v255.8l-648.4,466.9C3200,2842.3,3018,2901,2831.2,2901H1559.1v-445.3h469.6
			c119.6,0,236.1-37.6,333.1-107.4l469.3-337.8H4000z"/>
		<path class="st0" d="M4000,723.7V1169h-469.6c-119.6,0-236.1,37.6-333.1,107.4L1559.1,2455.7H0v-445.3h469.6
			c119.6,0,236.1-37.6,333.1-107.4L2207.8,891.5c151.6-109.1,333.6-167.8,520.3-167.8H4000z"/>
		<path class="st0" d="M2440.9,0v445.3h-469.6c-119.6,0-236.1,37.6-333.1,107.4L1169,890.5H0V634.7l648.4-466.9
			C800,58.7,982,0,1168.8,0H2440.9z"/>
	</g>
</g>
</svg>
