<?xml version="1.0" standalone="no"?>
<!DOCTYPE svg PUBLIC "-//W3C//DTD SVG 20010904//EN"
 "http://www.w3.org/TR/2001/REC-SVG-20010904/DTD/svg10.dtd">
<svg version="1.0" xmlns="http://www.w3.org/2000/svg"
 width="1024.000000pt" height="1024.000000pt" viewBox="0 0 1024.000000 1024.000000"
 preserveAspectRatio="xMidYMid meet">
<metadata>
Created by potrace 1.14, written by Peter Selinger 2001-2017
</metadata>
<g transform="translate(0.000000,1024.000000) scale(0.100000,-0.100000)"
fill="#000000" stroke="none">
<path d="M0 5120 l0 -5120 5120 0 5120 0 0 5120 0 5120 -5120 0 -5120 0 0
-5120z m5951 2780 c21 -12 27 -55 6 -47 -20 8 -38 -68 -40 -168 -1 -63 2 -89
11 -92 14 -5 17 -63 2 -63 -17 0 -12 -218 7 -280 19 -63 23 -174 7 -190 -7 -7
-173 -13 -525 -16 -283 -3 -521 -8 -529 -11 -8 -3 -30 -7 -49 -9 -85 -9 -242
-67 -346 -129 -81 -48 -485 -337 -813 -580 -84 -62 -165 -116 -180 -118 -51
-9 -2202 -8 -2202 0 0 39 715 97 1527 124 251 8 362 8 474 -2 107 -9 151 -9
165 -1 18 11 18 11 -3 12 -36 0 -27 13 35 48 58 33 154 100 175 121 9 10 9 12
-3 9 -9 -2 -14 4 -14 14 1 9 -4 14 -11 12 -20 -8 -25 23 -7 39 46 40 446 310
631 426 132 83 245 135 396 182 57 18 58 18 15 13 -83 -11 -261 -82 -379 -150
-154 -88 -341 -213 -626 -417 -106 -75 -196 -129 -249 -147 -67 -23 -181 -37
-172 -21 4 6 17 11 30 11 76 0 198 66 436 236 441 314 682 451 890 503 172 43
285 54 545 50 326 -5 465 -1 465 12 0 18 -774 5 -874 -15 -301 -60 -485 -156
-1101 -576 -149 -101 -249 -152 -343 -175 -88 -22 -106 -14 -22 9 33 9 60 21
60 26 0 27 -100 66 -220 86 -259 44 -663 71 -694 45 -7 -6 -38 -14 -67 -18
-42 -5 -50 -4 -44 7 7 11 -3 12 -50 6 -33 -4 -57 -5 -54 -2 17 17 301 96 689
192 224 55 444 116 525 144 33 11 85 22 116 24 31 2 73 13 93 23 l37 19 -48
-1 c-40 -2 -109 -15 -208 -42 -17 -4 -15 0 9 26 17 17 33 31 38 31 4 0 54 20
111 44 111 47 254 92 302 95 17 0 71 14 120 30 50 17 126 39 170 51 44 12 134
39 200 60 251 80 423 107 755 120 255 10 415 6 425 -11 3 -4 -21 -11 -52 -15
-47 -6 -53 -9 -33 -15 39 -11 188 -11 170 1 -13 9 -13 10 0 10 34 0 118 -29
158 -54 41 -25 42 -26 42 -6 0 12 5 18 10 15 19 -12 30 48 30 171 l0 124 -42
-41 c-50 -48 -118 -85 -208 -112 -54 -16 -124 -22 -410 -32 -357 -14 -537 -31
-675 -64 -44 -10 -111 -24 -150 -31 -38 -7 -132 -32 -209 -56 -76 -24 -142
-42 -145 -39 -9 5 -259 -61 -283 -75 -10 -5 -25 -10 -33 -10 -8 0 -34 -9 -58
-19 -59 -27 -76 -31 -170 -41 -54 -5 -86 -5 -95 2 -18 15 -142 -7 -259 -46
-54 -18 -123 -36 -153 -40 -172 -22 -881 -295 -946 -364 -14 -15 -41 -26 -75
-31 -82 -14 -111 -30 -104 -58 3 -13 1 -23 -4 -23 -16 0 -83 -31 -78 -36 3 -3
14 -1 25 5 22 12 74 0 55 -12 -15 -9 -161 -37 -194 -37 -15 0 -32 6 -38 14
-20 24 63 84 248 179 94 49 171 90 171 92 0 8 -53 -18 -270 -133 -173 -91
-220 -130 -200 -162 14 -23 -1 -33 -22 -14 -17 16 -21 16 -29 4 -11 -15 -10
-9 2 39 8 30 69 71 209 141 136 68 284 146 530 280 122 66 240 126 325 165
166 76 235 109 290 137 33 16 76 36 95 43 19 7 55 22 80 33 162 75 515 174
795 222 367 63 603 84 1045 95 387 10 537 28 565 68 13 19 13 22 -2 31 -21 11
-634 1 -858 -15 -88 -6 -421 -12 -740 -14 -637 -2 -676 -5 -858 -66 -182 -60
-278 -113 -527 -290 -215 -152 -607 -414 -843 -564 -282 -179 -275 -170 -298
-357 -7 -54 -16 -95 -21 -92 -4 3 -6 15 -3 27 2 12 7 58 9 102 7 115 14 142
50 171 26 21 27 24 6 14 -49 -24 -80 -62 -81 -99 -1 -32 -3 -31 -12 16 -8 43
-7 57 6 76 9 14 109 92 224 174 114 82 397 286 628 454 231 167 459 327 508
357 197 119 448 204 683 231 107 13 2601 13 2625 1z m-3671 -1160 c-8 -5 -24
-9 -35 -9 -16 1 -16 2 5 9 35 11 48 11 30 0z m-150 -36 c-52 -13 -99 -22 -105
-20 -13 4 153 45 180 44 11 0 -23 -11 -75 -24z m-843 -211 c-3 -10 -5 -4 -5
12 0 17 2 24 5 18 2 -7 2 -21 0 -30z m203 -8 c0 -5 -5 -3 -10 5 -5 8 -10 20
-10 25 0 6 5 3 10 -5 5 -8 10 -19 10 -25z m7455 29 c15 -6 21 -34 7 -34 -4 0
-13 -24 -20 -53 -15 -64 -16 -191 -2 -182 6 4 10 -7 10 -25 0 -18 -4 -29 -10
-25 -20 12 -12 -229 11 -318 15 -60 18 -94 13 -131 -4 -28 -8 -59 -8 -70 -1
-17 -19 -18 -466 -17 -517 2 -609 -4 -750 -50 -133 -44 -194 -76 -335 -174
-120 -83 -154 -107 -216 -152 -36 -27 -128 -93 -205 -147 -76 -55 -157 -112
-179 -128 -22 -17 -80 -59 -130 -94 -166 -118 -449 -322 -555 -398 -58 -42
-123 -89 -145 -104 -67 -47 -786 -566 -949 -685 -28 -20 -62 -45 -76 -54 -14
-10 -74 -54 -135 -99 -60 -44 -186 -136 -280 -204 -93 -68 -183 -134 -199
-147 -32 -27 -43 -25 -26 6 7 14 7 21 0 21 -17 0 -12 66 7 81 15 13 15 12 5
-8 -14 -26 -15 -33 -3 -33 4 0 24 26 44 58 20 33 67 88 105 123 79 75 168 139
158 114 -6 -17 17 1 145 116 41 36 84 71 96 77 14 8 20 18 16 30 -3 14 16 38
69 87 l73 67 -105 -83 c-123 -98 -358 -300 -517 -446 -100 -92 -133 -116 -133
-98 0 18 39 76 94 138 106 123 98 128 -21 13 -61 -59 -74 -65 -53 -25 17 31 2
23 -72 -38 -94 -77 -100 -89 -57 -126 95 -84 110 -99 105 -104 -8 -8 -2956
-10 -2956 -2 0 8 96 25 215 39 135 15 470 29 955 40 239 5 548 14 685 20 818
33 862 36 924 68 62 32 86 112 61 204 -9 31 -19 41 -63 62 -29 14 -83 30 -122
36 -38 6 -92 15 -120 20 -27 6 -144 13 -260 16 -185 6 -215 5 -250 -10 -39
-17 -180 -46 -220 -46 -17 0 -18 2 -5 11 11 7 0 8 -35 3 -80 -11 -237 -51
-244 -62 -8 -13 -142 -42 -196 -42 -22 0 -102 -11 -178 -25 -180 -32 -413 -48
-547 -38 -58 4 -116 6 -130 5 -14 -2 -41 4 -59 11 -32 14 -32 14 -10 21 13 3
110 11 214 16 666 34 799 50 1160 141 139 35 474 135 598 179 362 128 656 296
1282 734 110 77 317 218 460 313 143 95 281 187 307 205 26 18 56 33 66 34 21
1 226 116 257 144 30 27 118 68 134 62 8 -3 11 0 7 7 -5 7 1 11 14 11 12 0 52
17 88 39 169 98 621 310 899 422 195 79 394 138 563 169 152 28 163 30 157 36
-3 3 -60 -2 -127 -11 -114 -14 -157 -15 -113 -1 79 25 264 47 458 55 121 5
236 8 255 7 19 -2 63 -3 98 -4 73 -2 85 -22 13 -22 -28 0 -52 -4 -55 -9 -8
-12 165 -20 188 -8 29 15 103 0 162 -32 l54 -29 0 25 c0 13 4 21 10 18 6 -3
10 3 10 14 0 11 5 23 10 26 6 4 10 57 10 125 l0 119 -52 -52 c-39 -39 -71 -59
-123 -79 -141 -52 -167 -56 -440 -63 -237 -6 -379 -17 -583 -45 -40 -5 -78
-13 -84 -16 -6 -4 -54 -12 -107 -19 -135 -17 -358 -79 -457 -126 -45 -22 -115
-48 -156 -59 -40 -10 -100 -31 -132 -45 -32 -14 -65 -24 -72 -21 -16 6 -266
-91 -280 -109 -6 -8 -19 -15 -28 -15 -9 0 -45 -17 -79 -37 -142 -85 -355 -172
-368 -151 -18 29 -321 -158 -754 -466 -93 -67 -219 -154 -280 -195 -60 -41
-121 -84 -135 -96 -14 -13 -43 -32 -66 -43 -22 -11 -57 -36 -78 -54 -21 -18
-43 -33 -49 -33 -12 0 -51 -22 -127 -70 -90 -56 -510 -305 -516 -305 -3 0 -65
-30 -137 -66 -73 -36 -175 -84 -227 -106 -52 -22 -169 -73 -260 -113 -303
-134 -520 -202 -800 -252 -132 -23 -179 -26 -510 -32 l-365 -6 -34 -24 c-33
-24 -33 -25 -12 -33 12 -4 19 -13 16 -18 -4 -6 -1 -18 6 -26 17 -20 5 -28 -21
-14 -22 12 -50 66 -50 97 0 10 7 31 15 47 9 16 13 31 11 33 -3 3 -14 -14 -26
-38 -16 -31 -20 -52 -16 -80 5 -32 3 -37 -9 -33 -16 6 -18 20 -15 94 2 45 16
67 56 87 11 6 187 11 434 12 507 2 545 7 820 103 63 22 161 62 218 89 146 68
491 256 627 341 17 10 55 30 85 45 61 29 133 74 138 86 2 4 8 7 13 7 24 0 595
381 928 618 102 73 233 166 291 207 58 41 170 122 250 180 80 59 219 156 310
216 91 61 173 117 182 124 10 8 36 25 59 37 67 37 92 52 129 74 188 114 480
231 735 295 149 37 247 69 260 85 6 6 23 19 40 27 l30 15 -35 6 c-60 10 -417
26 -591 26 -178 0 -229 -5 -229 -25 0 -6 -10 -17 -22 -23 -13 -6 -41 -23 -63
-36 -22 -14 -94 -55 -160 -92 -170 -95 -260 -158 -510 -355 -395 -312 -586
-457 -885 -670 -240 -172 -581 -398 -545 -362 6 5 48 36 95 68 402 277 888
637 1397 1036 135 107 296 219 417 293 26 15 45 31 42 33 -5 6 -94 -46 -191
-110 -33 -22 -188 -140 -345 -262 -291 -225 -597 -453 -910 -676 -199 -142
-213 -151 -184 -118 20 23 44 62 44 73 0 2 -8 6 -17 8 -14 2 -10 8 17 25 19
12 49 36 65 54 l30 33 -30 -19 c-16 -10 -53 -34 -81 -52 -51 -34 -91 -37 -79
-5 4 11 0 11 -22 -4 -32 -20 -268 -201 -388 -297 -226 -180 -370 -284 -678
-491 -186 -124 -382 -248 -435 -275 -186 -93 -357 -139 -554 -148 -65 -3 -115
-10 -112 -14 3 -5 -39 -8 -93 -7 l-98 2 75 6 75 6 -91 2 c-128 3 -338 19 -486
39 -83 11 -134 13 -148 7 -20 -9 -21 -17 -25 -264 -2 -140 -8 -273 -13 -295
-7 -28 -8 12 -5 140 7 213 7 197 -2 262 -5 36 -4 57 4 67 9 10 9 16 1 21 -6 4
-9 21 -6 41 5 26 3 32 -9 28 -11 -5 -15 -33 -18 -132 -2 -97 -3 -87 -3 38 l1
165 515 6 c538 6 560 8 705 55 158 52 212 83 525 309 417 300 796 573 1200
864 649 468 1112 800 1258 903 276 196 545 301 862 337 82 9 2571 14 2595 5z
m-7210 -24 c-3 -5 -23 -10 -43 -10 -28 0 -33 3 -22 10 20 13 73 13 65 0z
m1422 -36 c-3 -3 -12 -4 -19 -1 -8 3 -5 6 6 6 11 1 17 -2 13 -5z m66 -1 c-7
-2 -19 -2 -25 0 -7 3 -2 5 12 5 14 0 19 -2 13 -5z m-1936 -40 c-3 -10 -5 -4
-5 12 0 17 2 24 5 18 2 -7 2 -21 0 -30z m1548 27 c-16 -4 -71 -8 -120 -9 -100
-1 -620 -37 -675 -46 -25 -5 -31 -3 -20 3 18 12 235 39 405 51 152 10 450 11
410 1z m-105 -69 c0 -11 -179 -19 -540 -26 -191 -4 -278 -2 -265 5 42 20 805
41 805 21z m-1443 -98 c-2 -16 -4 -3 -4 27 0 30 2 43 4 28 2 -16 2 -40 0 -55z
m5460 -571 c-9 -10 -33 -24 -54 -31 -21 -8 -54 -24 -73 -36 -19 -12 -62 -32
-95 -46 -33 -13 -61 -27 -63 -31 -2 -4 -24 -17 -49 -28 -25 -11 -96 -53 -157
-94 -135 -90 -206 -128 -223 -121 -14 5 -214 -113 -467 -274 -71 -45 -130 -80
-133 -78 -2 3 7 11 19 19 13 9 85 65 162 126 76 60 173 132 215 158 42 26 143
92 226 146 179 117 392 225 457 231 24 3 60 13 78 22 45 23 130 53 154 54 18
1 18 0 3 -17z m2208 -1672 c4 -6 2 -17 -4 -24 -10 -12 -26 -102 -22 -123 0 -5
6 -8 13 -8 6 0 13 -6 16 -12 2 -7 -3 -13 -12 -13 -23 0 -23 -151 -1 -170 16
-13 21 -96 7 -102 -5 -1 -15 -16 -23 -33 -14 -30 -48 -55 -454 -347 -93 -67
-291 -210 -440 -317 -379 -274 -444 -317 -580 -382 -137 -65 -262 -107 -420
-141 l-110 -23 -1317 -3 c-755 -1 -1318 1 -1318 6 0 5 28 12 63 16 34 3 114
13 177 21 118 15 350 24 1340 50 588 16 833 28 935 46 148 25 255 82 255 136
0 37 -18 63 -53 78 -131 54 -701 84 -973 50 -66 -8 -221 -33 -344 -54 -313
-55 -407 -65 -630 -65 -227 0 -327 6 -360 24 -23 13 -24 13 -4 20 19 8 180 18
614 40 393 20 628 66 1365 268 182 50 346 96 365 102 103 32 191 52 243 56 32
2 74 11 94 19 19 8 50 15 67 15 41 0 218 61 446 153 47 19 107 42 133 52 62
22 56 30 -8 10 -27 -8 -51 -13 -53 -11 -4 5 45 24 348 132 129 47 251 91 270
99 20 7 86 25 148 40 62 15 112 32 112 37 0 5 7 8 16 6 19 -3 23 12 31 116 l5
70 -43 -38 c-73 -67 -140 -93 -745 -290 -111 -36 -218 -76 -239 -90 -21 -15
-48 -26 -61 -26 -13 0 -50 -9 -81 -20 -32 -11 -67 -19 -78 -18 -23 1 -187 -38
-213 -51 -80 -41 -290 -74 -318 -50 -21 17 -125 2 -229 -33 -49 -17 -131 -41
-180 -53 -50 -13 -124 -37 -164 -54 -40 -17 -77 -31 -83 -31 -5 0 -37 -11 -71
-24 -212 -83 -263 -102 -357 -135 -387 -139 -592 -170 -1095 -171 -272 0 -304
-2 -335 -18 -34 -19 -51 -42 -31 -42 6 0 11 -8 11 -18 0 -10 5 -23 11 -29 6
-6 9 -17 7 -23 -2 -8 -14 -4 -32 12 -24 20 -30 34 -34 81 -3 42 0 63 12 82 9
14 13 25 8 25 -5 0 -17 -15 -27 -33 -18 -34 -18 -109 0 -152 5 -13 0 -11 -14
8 -18 22 -23 40 -23 86 0 33 3 67 6 77 14 45 25 47 501 50 247 1 475 7 505 13
212 37 341 83 612 218 69 35 130 63 133 63 4 0 33 15 64 34 31 18 108 60 171
92 63 32 144 75 180 97 36 22 83 48 105 57 22 10 72 32 110 50 147 68 323 118
655 186 132 27 238 63 212 72 -8 2 -111 -1 -230 -7 -564 -30 -644 -51 -932
-246 -569 -386 -695 -458 -930 -526 -164 -48 -271 -60 -630 -69 -190 -5 -381
-14 -424 -20 -47 -6 -84 -6 -89 -1 -5 5 28 13 80 20 48 6 116 16 149 21 34 6
162 10 285 10 202 0 472 19 487 35 3 3 -73 3 -169 0 -113 -3 -167 -2 -154 4
14 7 -10 10 -80 10 -55 0 -92 -3 -83 -7 9 -4 -58 -7 -150 -8 -121 -1 -184 -6
-228 -18 -90 -24 -140 -22 -155 7 -6 12 -23 34 -37 50 -28 30 -19 35 34 18 38
-12 277 -22 247 -10 -13 4 -23 14 -23 20 0 8 -4 8 -12 2 -19 -15 -128 0 -142
19 -12 16 -49 38 -63 38 -4 0 0 -5 10 -11 44 -26 -11 -53 -67 -34 -49 17 -69
35 -38 35 12 0 22 4 22 9 0 12 -29 23 -41 15 -5 -3 -9 0 -9 5 0 6 -7 11 -16
11 -24 0 -70 39 -53 45 8 2 246 6 529 8 l515 3 100 27 c183 49 276 104 779
467 252 182 466 335 475 340 23 14 2248 13 2256 0z m-6725 -182 c0 -10 -246
-8 -285 2 -18 5 35 8 127 7 87 -1 158 -5 158 -9z m-943 -345 c-3 -10 -5 -2 -5
17 0 19 2 27 5 18 2 -10 2 -26 0 -35z m238 17 c3 -5 1 -10 -4 -10 -6 0 -11 5
-11 10 0 6 2 10 4 10 3 0 8 -4 11 -10z m60 -60 c3 -5 1 -10 -4 -10 -6 0 -11 5
-11 10 0 6 2 10 4 10 3 0 8 -4 11 -10z m-298 -107 c-2 -16 -4 -5 -4 22 0 28 2
40 4 28 2 -13 2 -35 0 -50z m6463 -38 c0 -6 -87 -44 -155 -67 -33 -11 -92 -35
-132 -54 -48 -24 -84 -34 -110 -33 -21 1 -72 -5 -113 -14 -102 -23 -110 -22
-80 7 14 14 50 33 80 44 30 11 80 29 110 41 75 29 178 54 195 48 7 -3 42 3 77
13 59 17 128 26 128 15z m-6463 -42 c-3 -10 -5 -4 -5 12 0 17 2 24 5 18 2 -7
2 -21 0 -30z m2996 -235 c-7 -97 -13 -99 -13 -5 0 43 4 77 10 77 6 0 7 -28 3
-72z m57 -220 c0 -120 -13 -284 -23 -294 -1 -1 -2 114 -2 256 0 225 2 254 13
222 8 -24 13 -88 12 -184z m373 135 c-7 -2 -21 -2 -30 0 -10 3 -4 5 12 5 17 0
24 -2 18 -5z m-436 -65 c-3 -8 -6 -5 -6 6 -1 11 2 17 5 13 3 -3 4 -12 1 -19z
m0 -440 c-3 -7 -5 -2 -5 12 0 14 2 19 5 13 2 -7 2 -19 0 -25z"/>
<path d="M5823 7861 c1 -15 4 -17 19 -7 24 14 23 26 -1 26 -13 0 -19 -6 -18
-19z"/>
<path d="M5739 7774 c-7 -8 -26 -22 -42 -30 -16 -9 -26 -18 -23 -21 6 -6 69
31 86 52 7 8 8 15 2 15 -5 0 -15 -7 -23 -16z"/>
<path d="M5714 7635 c-10 -8 -14 -15 -8 -15 6 0 17 7 24 15 16 19 9 19 -16 0z"/>
<path d="M2425 7403 c-147 -106 -324 -227 -560 -385 -159 -107 -232 -158 -185
-133 97 54 870 588 870 601 0 7 -4 4 -125 -83z"/>
<path d="M5290 7450 c0 -5 21 -10 48 -9 35 0 42 3 27 9 -28 12 -75 12 -75 0z"/>
<path d="M4925 7440 c-13 -6 6 -7 50 -3 39 3 72 7 74 9 9 8 -105 2 -124 -6z"/>
<path d="M4665 7413 c-204 -43 -289 -65 -438 -114 -99 -33 -195 -68 -215 -78
-21 -10 -55 -24 -77 -30 -47 -15 -71 -25 -180 -77 -74 -36 -78 -39 -48 -42 21
-2 103 26 260 88 271 109 511 190 648 220 55 11 114 25 130 30 28 7 26 8 -15
8 -25 0 -54 -2 -65 -5z"/>
<path d="M5854 7379 c-3 -6 -1 -16 5 -22 8 -8 11 -5 11 11 0 24 -5 28 -16 11z"/>
<path d="M5797 7305 c-22 -20 -40 -25 -85 -26 l-57 -2 64 -10 c44 -7 73 -7 92
0 21 8 30 7 43 -5 15 -15 16 -15 16 1 0 9 5 17 11 17 5 0 8 -4 4 -9 -3 -6 3
-36 14 -68 10 -32 18 -71 16 -88 -1 -16 0 -21 2 -10 3 11 9 23 14 26 5 3 0 35
-12 75 -15 49 -30 77 -53 96 -17 15 -33 27 -36 27 -3 0 -18 -11 -33 -24z"/>
<path d="M4900 7231 c-30 -4 -45 -8 -32 -9 43 -3 21 -17 -56 -36 -97 -24 -132
-37 -77 -31 l40 5 -30 -14 c-28 -14 -26 -14 45 -10 41 2 67 1 58 -3 -10 -5 76
-8 190 -8 114 0 286 -3 382 -7 108 -5 169 -4 161 1 -22 14 30 25 83 18 55 -8
104 4 85 20 -8 6 -34 15 -59 21 -44 10 -44 10 -10 11 36 1 100 -30 100 -49 0
-5 9 -10 20 -10 53 0 -18 66 -85 79 -92 19 -716 35 -815 22z m665 -31 c30 -6
21 -7 -35 -3 -41 3 -77 7 -79 9 -8 7 74 3 114 -6z"/>
<path d="M4755 7210 c-27 -7 -27 -8 -5 -8 14 0 39 4 55 8 27 7 27 8 5 8 -14 0
-38 -4 -55 -8z"/>
<path d="M5618 7103 c6 -2 18 -2 25 0 6 3 1 5 -13 5 -14 0 -19 -2 -12 -5z"/>
<path d="M2078 6854 c-38 -20 -36 -28 2 -9 17 9 30 18 30 20 0 7 -1 6 -32 -11z"/>
<path d="M1756 6625 c-24 -18 -15 -19 49 -1 l50 14 -40 1 c-22 0 -49 -6 -59
-14z"/>
<path d="M8758 6473 c29 -6 38 -28 22 -51 -7 -9 -1 -4 14 11 36 39 33 47 -16
46 -25 -1 -33 -4 -20 -6z"/>
<path d="M6798 6413 c12 -2 30 -2 40 0 9 3 -1 5 -23 4 -22 0 -30 -2 -17 -4z"/>
<path d="M8715 6410 c4 -6 11 -8 16 -5 14 9 11 15 -7 15 -8 0 -12 -5 -9 -10z"/>
<path d="M8708 6362 c-26 -20 -46 -38 -44 -39 7 -8 85 39 90 54 10 26 3 24
-46 -15z"/>
<path d="M8055 6363 c-109 -4 -324 -23 -341 -30 -12 -4 -4 -12 27 -26 41 -19
59 -19 289 -14 253 6 310 14 310 48 0 12 -13 18 -52 23 -51 6 -78 6 -233 -1z"/>
<path d="M5995 6304 c-182 -55 -327 -148 -504 -324 -71 -72 -135 -130 -141
-130 -5 0 -10 -6 -10 -14 0 -8 -17 -28 -37 -46 l-38 -31 42 25 c24 15 45 26
49 26 3 0 19 9 34 20 16 11 30 16 32 11 3 -11 224 134 437 287 79 57 149 106
157 109 7 2 11 10 8 16 -2 7 14 23 36 37 40 25 51 41 28 39 -7 0 -49 -11 -93
-25z"/>
<path d="M6082 6270 c-24 -28 -38 -50 -32 -50 18 0 80 66 80 84 0 9 -1 16 -2
16 -2 -1 -22 -23 -46 -50z"/>
<path d="M6180 6290 c0 -5 5 -10 10 -10 6 0 10 5 10 10 0 6 -4 10 -10 10 -5 0
-10 -4 -10 -10z"/>
<path d="M8695 6225 c-22 -14 -35 -25 -30 -25 12 0 75 38 75 45 0 7 -1 7 -45
-20z"/>
<path d="M8123 6043 c26 -2 67 -2 90 0 23 2 2 3 -48 3 -49 0 -68 -1 -42 -3z"/>
<path d="M8855 6001 c-6 -11 9 -23 19 -14 9 9 7 23 -3 23 -6 0 -12 -4 -16 -9z"/>
<path d="M8870 5923 c0 -4 9 -39 19 -76 18 -64 35 -97 45 -86 8 8 -32 138 -48
154 -9 9 -16 13 -16 8z"/>
<path d="M8075 5866 c-37 -11 -25 -13 130 -19 98 -4 207 -14 258 -25 48 -10
87 -15 87 -11 0 7 -92 42 -155 58 -54 15 -271 12 -320 -3z"/>
<path d="M5099 5583 c-13 -16 -12 -17 4 -4 16 13 21 21 13 21 -2 0 -10 -8 -17
-17z"/>
<path d="M7094 5504 c-18 -14 -18 -15 4 -4 12 6 22 13 22 15 0 8 -5 6 -26 -11z"/>
<path d="M6826 5345 c-380 -232 -749 -478 -871 -580 -27 -23 -90 -68 -140
-101 -199 -131 -1000 -752 -973 -754 4 0 69 48 145 108 174 135 667 507 793
597 52 37 111 82 130 100 40 38 582 400 920 615 217 137 250 160 239 160 -3 0
-113 -65 -243 -145z"/>
<path d="M6989 5332 c-75 -55 -393 -309 -571 -454 -48 -39 -86 -73 -84 -75 5
-5 137 98 352 274 88 71 210 168 272 217 97 75 121 97 110 96 -2 0 -37 -26
-79 -58z"/>
<path d="M4559 5253 c-13 -16 -12 -17 4 -4 9 7 17 15 17 17 0 8 -8 3 -21 -13z"/>
<path d="M6309 5163 c-13 -16 -12 -17 4 -4 16 13 21 21 13 21 -2 0 -10 -8 -17
-17z"/>
<path d="M6389 4957 c-53 -40 -130 -97 -170 -128 -41 -31 -93 -69 -116 -84
-49 -31 -56 -42 -15 -22 15 8 38 18 50 22 22 6 23 5 12 -15 -11 -20 -10 -21
10 -10 11 6 25 21 29 33 12 29 93 105 209 196 79 62 102 83 90 81 -2 -1 -46
-33 -99 -73z"/>
<path d="M3810 4808 c-305 -216 -926 -643 -992 -682 -58 -34 -63 -44 -8 -16
135 69 1298 880 1260 879 -3 0 -120 -82 -260 -181z"/>
<path d="M6254 4739 c-19 -22 -19 -22 4 -8 12 8 22 17 22 21 0 12 -6 9 -26
-13z"/>
<path d="M5720 4729 l-25 -20 33 16 c17 8 32 18 32 20 0 10 -16 4 -40 -16z"/>
<path d="M5947 4681 c-118 -78 -407 -286 -452 -327 l-30 -26 35 24 c19 14 107
77 195 140 88 63 203 143 255 178 97 64 119 80 108 80 -3 0 -53 -31 -111 -69z"/>
<path d="M5930 4634 c-184 -122 -704 -500 -781 -567 -41 -36 -40 -36 16 6 57
41 176 127 498 360 78 57 194 138 257 182 63 43 119 82 125 87 25 22 -10 1
-115 -68z"/>
<path d="M5815 4514 c-250 -177 -615 -445 -615 -451 0 -3 6 -1 13 5 16 13 257
186 527 380 118 84 219 158 225 163 25 24 -12 0 -150 -97z"/>
<path d="M5252 4179 c-23 -17 -42 -33 -42 -35 0 -3 20 9 45 27 40 29 51 39 42
39 -2 0 -22 -14 -45 -31z"/>
<path d="M5179 4123 c-13 -16 -12 -17 4 -4 16 13 21 21 13 21 -2 0 -10 -8 -17
-17z"/>
<path d="M5139 4093 c-13 -16 -12 -17 4 -4 9 7 17 15 17 17 0 8 -8 3 -21 -13z"/>
<path d="M5106 3970 c-61 -44 -117 -87 -125 -97 -17 -18 6 -3 147 101 79 58
102 78 90 76 -2 -1 -52 -37 -112 -80z"/>
<path d="M5079 4013 c-13 -16 -12 -17 4 -4 16 13 21 21 13 21 -2 0 -10 -8 -17
-17z"/>
<path d="M5029 3973 c-13 -16 -12 -17 4 -4 9 7 17 15 17 17 0 8 -8 3 -21 -13z"/>
<path d="M5065 3964 l-30 -26 33 22 c17 12 32 23 32 26 0 7 -4 5 -35 -22z"/>
<path d="M4939 3843 c-13 -16 -12 -17 4 -4 16 13 21 21 13 21 -2 0 -10 -8 -17
-17z"/>
<path d="M4674 3778 l-19 -23 23 19 c12 11 22 21 22 23 0 8 -8 2 -26 -19z"/>
<path d="M4614 3728 l-19 -23 23 19 c12 11 22 21 22 23 0 8 -8 2 -26 -19z"/>
<path d="M4771 3640 c-38 -33 -73 -65 -77 -72 -4 -7 26 16 67 51 93 80 94 81
86 81 -3 0 -38 -27 -76 -60z"/>
<path d="M4520 3649 c-27 -25 -33 -33 -15 -21 28 18 73 62 64 62 -2 0 -24 -19
-49 -41z"/>
<path d="M4320 3269 c0 -5 5 -7 10 -4 6 3 10 8 10 11 0 2 -4 4 -10 4 -5 0 -10
-5 -10 -11z"/>
<path d="M6490 5630 c-9 -6 -10 -10 -3 -10 6 0 15 5 18 10 8 12 4 12 -15 0z"/>
<path d="M8765 3993 c48 -10 49 -12 24 -40 -22 -23 -22 -25 -3 -15 12 6 29 23
38 37 l16 25 -47 -1 c-27 -1 -39 -3 -28 -6z"/>
<path d="M8700 3939 c0 -16 17 -18 35 -5 17 13 17 14 -8 14 -15 0 -27 -4 -27
-9z"/>
<path d="M6735 3928 c-29 -10 -135 -84 -135 -93 0 -3 24 11 54 30 45 31 60 35
94 32 23 -3 45 -8 51 -11 5 -3 20 -2 34 3 14 5 28 7 32 3 10 -11 151 -29 240
-31 43 -1 86 -6 94 -11 14 -8 14 -9 1 -10 -13 0 -13 -2 0 -9 8 -6 18 -7 22 -5
4 3 8 1 8 -5 0 -6 -25 -10 -62 -9 -35 0 -90 -2 -123 -5 -33 -3 -68 -6 -78 -6
-10 -1 -16 -5 -13 -10 3 -5 -11 -11 -31 -14 -43 -7 -166 -67 -208 -102 -29
-24 -29 -24 -5 -21 14 1 55 17 91 34 119 56 228 73 564 89 88 5 140 9 115 11
-52 3 -190 32 -190 39 0 3 17 2 37 -2 33 -6 35 -5 24 9 -12 14 -9 16 20 17 47
1 82 12 87 27 3 9 -17 12 -75 12 -68 0 -174 7 -373 25 -145 13 -175 14 -140 6
l35 -8 -40 -2 c-22 0 -53 6 -69 14 -15 8 -29 15 -30 14 0 0 -14 -5 -31 -11z
m558 -85 c-7 -2 -21 -2 -30 0 -10 3 -4 5 12 5 17 0 24 -2 18 -5z"/>
<path d="M7458 3933 c34 -2 88 -2 120 0 31 2 3 3 -63 3 -66 0 -92 -1 -57 -3z"/>
<path d="M8695 3887 c-33 -18 -73 -38 -90 -44 l-30 -12 34 5 c47 8 138 52 145
69 3 8 4 15 3 14 -1 0 -29 -15 -62 -32z"/>
<path d="M7488 3882 c-10 -2 -18 -8 -18 -13 0 -9 48 -6 150 11 37 7 32 8 -35
7 -44 -1 -88 -3 -97 -5z"/>
<path d="M8230 3870 c0 -11 60 -11 105 0 23 6 15 8 -37 9 -40 1 -68 -3 -68 -9z"/>
<path d="M6698 3839 c-21 -11 -38 -22 -38 -24 0 -3 13 1 30 10 16 8 46 19 67
24 35 8 36 9 8 10 -16 0 -47 -9 -67 -20z"/>
<path d="M6790 3829 c0 -5 5 -7 10 -4 6 3 10 8 10 11 0 2 -4 4 -10 4 -5 0 -10
-5 -10 -11z"/>
<path d="M6817 3817 c-33 -7 -65 -25 -105 -59 -31 -26 -90 -71 -131 -100 -63
-45 -133 -101 -94 -75 6 5 16 6 21 3 5 -3 40 21 78 54 101 87 201 150 269 171
65 19 40 23 -38 6z"/>
<path d="M8690 3775 c-14 -8 -20 -14 -14 -15 5 0 19 7 30 15 24 18 16 19 -16
0z"/>
<path d="M6640 3759 c0 -5 5 -7 10 -4 6 3 10 8 10 11 0 2 -4 4 -10 4 -5 0 -10
-5 -10 -11z"/>
<path d="M6455 3634 c-19 -15 -22 -21 -9 -15 18 9 52 41 43 41 -2 0 -17 -12
-34 -26z"/>
<path d="M6692 3634 c-12 -8 -31 -17 -42 -19 -12 -2 -82 -49 -158 -103 -224
-163 -493 -336 -609 -392 -106 -52 -242 -101 -316 -115 -20 -4 -35 -11 -32
-15 5 -9 102 12 190 41 104 34 295 134 439 229 194 128 545 370 552 381 8 13
2 11 -24 -7z"/>
<path d="M8860 3646 c0 -20 25 -66 37 -66 8 0 11 -4 8 -10 -3 -5 -1 -10 4 -10
12 0 15 48 5 74 -5 13 -54 24 -54 12z"/>
<path d="M6275 3509 c-55 -39 -146 -102 -203 -141 -56 -38 -105 -75 -109 -81
-9 -14 -2 -10 209 136 159 109 224 158 207 157 -2 -1 -49 -32 -104 -71z"/>
<path d="M6425 3544 l-30 -26 33 22 c17 12 32 23 32 26 0 7 -4 5 -35 -22z"/>
<path d="M6223 3409 c-24 -17 -43 -32 -43 -35 0 -3 20 9 45 26 25 17 45 33 45
35 0 7 -2 6 -47 -26z"/>
<path d="M5662 3204 c-40 -19 -119 -46 -175 -60 -118 -30 -219 -62 -196 -63
72 -4 295 69 424 137 62 33 28 24 -53 -14z"/>
<path d="M4348 3163 c7 -3 16 -2 19 1 4 3 -2 6 -13 5 -11 0 -14 -3 -6 -6z"/>
<path d="M4388 3159 c4 -4 36 -16 72 -27 80 -25 210 -40 355 -41 61 -1 166 -5
235 -10 69 -4 145 -5 170 -1 41 7 38 8 -35 11 l-80 3 75 5 c69 6 64 6 -65 12
-77 3 -224 5 -327 5 -102 -1 -181 2 -175 6 7 4 -3 8 -21 8 -19 0 -48 6 -65 14
-31 14 -153 27 -139 15z m660 -56 c-15 -2 -42 -2 -60 0 -18 2 -6 4 27 4 33 0
48 -2 33 -4z"/>
<path d="M4718 3133 c7 -3 16 -2 19 1 4 3 -2 6 -13 5 -11 0 -14 -3 -6 -6z"/>
<path d="M4828 3123 c6 -2 18 -2 25 0 6 3 1 5 -13 5 -14 0 -19 -2 -12 -5z"/>
<path d="M5680 3090 c-25 -11 -39 -19 -31 -19 23 -1 91 22 91 31 0 11 -7 9
-60 -12z"/>
<path d="M4825 3050 c41 -10 258 -10 225 0 -14 4 -77 8 -140 8 -73 0 -104 -3
-85 -8z"/>
<path d="M5328 3053 c7 -3 16 -2 19 1 4 3 -2 6 -13 5 -11 0 -14 -3 -6 -6z"/>
<path d="M5143 3043 c20 -2 54 -2 75 0 20 2 3 4 -38 4 -41 0 -58 -2 -37 -4z"/>
<path d="M4908 3003 c12 -2 32 -2 45 0 12 2 2 4 -23 4 -25 0 -35 -2 -22 -4z"/>
</g>
</svg>
